<?xml version="1.0" encoding="UTF-8"?>
<svg version="1.1" xmlns="http://www.w3.org/2000/svg" width="500" height="500">
<path d="M0 0 C165 0 330 0 500 0 C500 165 500 330 500 500 C335 500 170 500 0 500 C0 335 0 170 0 0 Z " fill="#0049AC" transform="translate(0,0)"/>
<path d="M0 0 C165 0 330 0 500 0 C500 165 500 330 500 500 C335 500 170 500 0 500 C0 335 0 170 0 0 Z M98.546875 84.60546875 C96.47734465 86.55120818 94.3813087 88.38682958 92.1875 90.1875 C89.14631867 92.76922228 86.56057155 95.60275453 83.98828125 98.6484375 C82.55476016 100.34387894 81.08966638 102.01280184 79.60546875 103.6640625 C38.9309648 149.33728495 22.9444662 208.73169484 26.28125 268.76171875 C29.84527714 318.94021163 51.55067698 363.36471211 84 401 C84.97646484 402.16402344 84.97646484 402.16402344 85.97265625 403.3515625 C89.34190714 407.32712506 92.88967397 410.81386132 96.87109375 414.17578125 C98.31052216 415.40919972 99.71932121 416.67913567 101.09765625 417.98046875 C145.57927292 459.86796026 205.36046179 475.72160178 265.05032349 474.33113098 C315.87614949 472.61599998 363.20343825 448.58837411 401 416 C401.77601563 415.34902344 402.55203125 414.69804687 403.3515625 414.02734375 C407.32712506 410.65809286 410.81386132 407.11032603 414.17578125 403.12890625 C415.40919972 401.68947784 416.67913567 400.28067879 417.98046875 398.90234375 C458.61857872 355.7474838 475.88272905 296.4678066 474.24966431 238.28065491 C472.52578321 187.40266477 451.21517994 138.12471734 417.29589844 100.44726562 C416.0989929 99.11055575 414.92717956 97.7514912 413.7578125 96.390625 C410.12116258 92.17380914 406.35714119 88.37947148 402.09765625 84.79296875 C400.65671093 83.56132275 399.24886467 82.29021157 397.87109375 80.98828125 C367.73537014 52.58625409 326.77657437 35.35518987 286.44995117 28.4296875 C284.74799638 28.1311882 283.05029255 27.80781297 281.35668945 27.46508789 C217.32948702 14.82944916 145.0847067 40.64608448 98.546875 84.60546875 Z " fill="#000000" transform="translate(0,0)"/>
<path d="M0 0 C9.24 0 18.48 0 28 0 C28 21.78 28 43.56 28 66 C39.22 66 50.44 66 62 66 C62 44.22 62 22.44 62 0 C71.57 0 81.14 0 91 0 C91 21.78 91 43.56 91 66 C136.21 66 181.42 66 228 66 C228 60.72 228 55.44 228 50 C228.99 50 229.98 50 231 50 C231 55.28 231 60.56 231 66 C242.55 66 254.1 66 266 66 C266 55.11 266 44.22 266 33 C286.13 33 306.26 33 327 33 C330 59 330 59 330 66 C339.24 66 348.48 66 358 66 C356.64845371 72.75773146 355.2780508 78.71698621 352.875 85.0625 C352.56788086 85.87831543 352.26076172 86.69413086 351.94433594 87.53466797 C342.22181392 112.89073068 327.70738538 134.37938427 309 154 C308.27296875 154.77988281 307.5459375 155.55976563 306.796875 156.36328125 C282.16313982 182.04623108 246.68565401 200.19959688 212 207 C210.07414062 207.44279297 210.07414062 207.44279297 208.109375 207.89453125 C185.06763703 212.72859383 157.93710449 211.90509328 135 207 C134.18934082 206.83371094 133.37868164 206.66742188 132.54345703 206.49609375 C82.56071772 195.98775066 39.60332805 165.21329667 11.63256836 122.80371094 C1.75430868 107.42485553 -12 84.72085356 -12 66 C-8.04 66 -4.08 66 0 66 C0 44.22 0 22.44 0 0 Z " fill="#1800AD" transform="translate(77,231)"/>
<path d="M0 0 C2.38019148 0.00537014 4.76019499 0.00001713 7.14038086 -0.00634766 C56.02011123 -0.03308485 101.24474123 20.65124136 136.31811523 54.13037109 C137.17147461 54.93087891 138.02483398 55.73138672 138.90405273 56.55615234 C160.70702529 77.56816532 180.34018601 108.24072499 186.31811523 138.13037109 C177.40811523 138.13037109 168.49811523 138.13037109 159.31811523 138.13037109 C159.31811523 141.10037109 159.31811523 144.07037109 159.31811523 147.13037109 C157.83311523 159.01037109 157.83311523 159.01037109 156.31811523 171.13037109 C136.18811523 171.13037109 116.05811523 171.13037109 95.31811523 171.13037109 C95.31811523 160.24037109 95.31811523 149.35037109 95.31811523 138.13037109 C76.83811523 138.13037109 58.35811523 138.13037109 39.31811523 138.13037109 C39.31811523 149.02037109 39.31811523 159.91037109 39.31811523 171.13037109 C18.19811523 171.13037109 -2.92188477 171.13037109 -24.68188477 171.13037109 C-24.68188477 160.24037109 -24.68188477 149.35037109 -24.68188477 138.13037109 C-35.90188477 138.13037109 -47.12188477 138.13037109 -58.68188477 138.13037109 C-58.68188477 143.74037109 -58.68188477 149.35037109 -58.68188477 155.13037109 C-59.67188477 155.13037109 -60.66188477 155.13037109 -61.68188477 155.13037109 C-61.68188477 149.52037109 -61.68188477 143.91037109 -61.68188477 138.13037109 C-101.28188477 138.13037109 -140.88188477 138.13037109 -181.68188477 138.13037109 C-179.66346951 130.72951514 -177.64724788 124.01901211 -174.61938477 117.06787109 C-174.22799316 116.16665527 -173.83660156 115.26543945 -173.43334961 114.33691406 C-166.83570905 99.44449909 -158.80503996 85.88655106 -148.68188477 73.13037109 C-148.24263672 72.57542969 -147.80338867 72.02048828 -147.35083008 71.44873047 C-132.2731105 52.60437524 -114.5988757 36.95262876 -93.49829102 25.14794922 C-91.70539361 24.1435411 -89.92844506 23.11431071 -88.15063477 22.08349609 C-72.97951481 13.4673627 -56.64625101 7.94967104 -39.68188477 4.13037109 C-37.59773551 3.57090177 -35.51434102 3.00860953 -33.43188477 2.44287109 C-22.47219087 -0.24670231 -11.21654903 -0.03007428 0 0 Z " fill="#1800AD" transform="translate(247.681884765625,58.86962890625)"/>
<path d="M0 0 C41.91 0 83.82 0 127 0 C127 5.61 127 11.22 127 17 C127.99 17 128.98 17 130 17 C130 11.39 130 5.78 130 0 C141.22 0 152.44 0 164 0 C164 10.89 164 21.78 164 33 C185.12 33 206.24 33 228 33 C228 22.11 228 11.22 228 0 C246.48 0 264.96 0 284 0 C284 10.89 284 21.78 284 33 C304.13 33 324.26 33 345 33 C345.33 27.06 345.66 21.12 346 15 C346.66 10.05 347.32 5.1 348 0 C359.55 0 371.1 0 383 0 C382.319375 5.4140625 382.319375 5.4140625 381.625 10.9375 C381.34975214 13.15358276 381.07491801 15.36971702 380.80078125 17.5859375 C380.33482291 21.3434521 379.85760932 25.09872247 379.35546875 28.8515625 C379.1743851 30.2551962 378.99338824 31.6588411 378.8125 33.0625 C378.65394531 34.24972656 378.49539063 35.43695313 378.33203125 36.66015625 C377.16475628 49.03973864 378.38211936 61.06031165 380 73.3125 C380.28974989 75.53351069 380.57651376 77.75476438 380.85595703 79.97709656 C381.10814964 81.97949041 381.37013193 83.98064443 381.6328125 85.98168945 C382.05817783 90.63666811 382 95.32562711 382 100 C370.78 100 359.56 100 348 100 C347.505 96.225625 347.01 92.45125 346.5 88.5625 C346.34337891 87.39146729 346.18675781 86.22043457 346.02539062 85.01391602 C345.84266602 83.58583618 345.84266602 83.58583618 345.65625 82.12890625 C345.53056641 81.17056885 345.40488281 80.21223145 345.27539062 79.22485352 C344.92857877 75.16364984 345 71.075985 345 67 C324.87 67 304.74 67 284 67 C284 77.89 284 88.78 284 100 C272.45 100 260.9 100 249 100 C249 94.72 249 89.44 249 84 C248.01 84 247.02 84 246 84 C246 89.28 246 94.56 246 100 C200.79 100 155.58 100 109 100 C109 78.22 109 56.44 109 34 C99.43 34 89.86 34 80 34 C80 55.78 80 77.56 80 100 C68.78 100 57.56 100 46 100 C46 78.22 46 56.44 46 34 C36.76 34 27.52 34 18 34 C18 55.78 18 77.56 18 100 C6.78 100 -4.44 100 -16 100 C-16 72.61 -16 45.22 -16 17 C-10.72 17 -5.44 17 0 17 C0 11.39 0 5.78 0 0 Z " fill="#F8F8FC" transform="translate(59,197)"/>
<path d="M0 0 C5.61 0 11.22 0 17 0 C17 10.89 17 21.78 17 33 C43.73 33 70.46 33 98 33 C98 38.28 98 43.56 98 49 C103.61 49 109.22 49 115 49 C115 54.61 115 60.22 115 66 C109.39 66 103.78 66 98 66 C98 71.28 98 76.56 98 82 C65.66 82 33.32 82 0 82 C0 76.39 0 70.78 0 65 C32.34 65 64.68 65 98 65 C98 60.05 98 55.1 98 50 C70.94 50 43.88 50 16 50 C16 44.39 16 38.78 16 33 C10.72 33 5.44 33 0 33 C0 22.11 0 11.22 0 0 Z " fill="#000000" transform="translate(198,206)"/>
<path d="M0 0 C15.51 0 31.02 0 47 0 C47 5.28 47 10.56 47 16 C51.95 16 56.9 16 62 16 C62 10.72 62 5.44 62 0 C77.51 0 93.02 0 109 0 C109 5.28 109 10.56 109 16 C114.28 16 119.56 16 125 16 C125 37.78 125 59.56 125 82 C119.39 82 113.78 82 108 82 C108 60.55 108 39.1 108 17 C93.15 17 78.3 17 63 17 C63 38.45 63 59.9 63 82 C57.39 82 51.78 82 46 82 C46 60.55 46 39.1 46 17 C30.82 17 15.64 17 0 17 C0 11.39 0 5.78 0 0 Z " fill="#020202" transform="translate(68,206)"/>
<path d="M0 0 C5.61 0 11.22 0 17 0 C17 10.89 17 21.78 17 33 C42.41 33 67.82 33 94 33 C94 38.28 94 43.56 94 49 C68.26 49 42.52 49 16 49 C16 59.89 16 70.78 16 82 C10.72 82 5.44 82 0 82 C0 54.94 0 27.88 0 0 Z " fill="#040404" transform="translate(317,206)"/>
<path d="M0 0 C32.34 0 64.68 0 98 0 C98 5.28 98 10.56 98 16 C65.66 16 33.32 16 0 16 C0 10.72 0 5.44 0 0 Z " fill="#000000" transform="translate(198,272)"/>
<path d="M0 0 C5.61 0 11.22 0 17 0 C17 16.17 17 32.34 17 49 C49.34 49 81.68 49 115 49 C115 54.61 115 60.22 115 66 C77.05 66 39.1 66 0 66 C0 65.67 0 65.34 0 65 C32.34 65 64.68 65 98 65 C98 60.05 98 55.1 98 50 C70.94 50 43.88 50 16 50 C16 44.39 16 38.78 16 33 C10.72 33 5.44 33 0 33 C0 22.11 0 11.22 0 0 Z " fill="#9A9A9A" transform="translate(198,206)"/>
<path d="M0 0 C5.28 0 10.56 0 16 0 C16 21.45 16 42.9 16 65 C10.72 65 5.44 65 0 65 C0 43.55 0 22.1 0 0 Z " fill="#000000" transform="translate(52,223)"/>
<path d="M0 0 C4.95 0 9.9 0 15 0 C15 21.45 15 42.9 15 65 C10.05 65 5.1 65 0 65 C0 43.55 0 22.1 0 0 Z " fill="#000000" transform="translate(115,223)"/>
<path d="M0 0 C14.85 0 29.7 0 45 0 C45 4.95 45 9.9 45 15 C30.15 15 15.3 15 0 15 C0 10.05 0 5.1 0 0 Z " fill="#000000" transform="translate(131,207)"/>
<path d="M0 0 C14.85 0 29.7 0 45 0 C45 4.95 45 9.9 45 15 C30.15 15 15.3 15 0 15 C0 10.05 0 5.1 0 0 Z " fill="#000000" transform="translate(69,207)"/>
<path d="M0 0 C5.61 0 11.22 0 17 0 C16.52286582 4.37523038 16.04337231 8.75018025 15.5625 13.125 C15.42779297 14.3625 15.29308594 15.6 15.15429688 16.875 C15.02216797 18.07382813 14.89003906 19.27265625 14.75390625 20.5078125 C14.63345947 21.60754395 14.5130127 22.70727539 14.38891602 23.84033203 C14.01165327 26.90532542 13.50768451 29.95389296 13 33 C7.72 33 2.44 33 -3 33 C-3.15208015 25.26292215 -2.64307941 17.95877443 -1.5 10.3125 C-1.35691406 9.31283203 -1.21382813 8.31316406 -1.06640625 7.28320312 C-0.71778513 4.85447598 -0.3598853 2.4270836 0 0 Z " fill="#070707" transform="translate(415,206)"/>
<path d="M0 0 C5.28 0 10.56 0 16 0 C16.50619331 3.83260652 17.00513722 7.66592798 17.5 11.5 C17.64308594 12.57765625 17.78617187 13.6553125 17.93359375 14.765625 C18.06894531 15.82265625 18.20429688 16.8796875 18.34375 17.96875 C18.46943359 18.93232422 18.59511719 19.89589844 18.72460938 20.88867188 C19.05126249 24.57915712 19 28.29508656 19 32 C13.72 32 8.44 32 3 32 C2.49483825 27.97975445 1.99569899 23.95891389 1.5 19.9375 C1.35691406 18.80376953 1.21382813 17.67003906 1.06640625 16.50195312 C0.93105469 15.39658203 0.79570312 14.29121094 0.65625 13.15234375 C0.53056641 12.14163818 0.40488281 11.13093262 0.27539062 10.08959961 C-0.02331467 6.73843337 0 3.36445241 0 0 Z " fill="#030303" transform="translate(412,256)"/>
<path d="M0 0 C5.28 0 10.56 0 16 0 C16 10.56 16 21.12 16 32 C10.72 32 5.44 32 0 32 C0 21.44 0 10.88 0 0 Z " fill="#000000" transform="translate(296,207)"/>
<path d="M0 0 C5.28 0 10.56 0 16 0 C16 10.56 16 21.12 16 32 C10.72 32 5.44 32 0 32 C0 21.44 0 10.88 0 0 Z " fill="#000000" transform="translate(198,207)"/>
<path d="M0 0 C15.51 0 31.02 0 47 0 C47 5.28 47 10.56 47 16 C51.95 16 56.9 16 62 16 C62 10.72 62 5.44 62 0 C77.51 0 93.02 0 109 0 C109 5.28 109 10.56 109 16 C114.28 16 119.56 16 125 16 C125 16.33 125 16.66 125 17 C119.72 17 114.44 17 109 17 C109 38.45 109 59.9 109 82 C108.67 82 108.34 82 108 82 C108 60.55 108 39.1 108 17 C93.15 17 78.3 17 63 17 C63 38.45 63 59.9 63 82 C62.67 82 62.34 82 62 82 C62 60.55 62 39.1 62 17 C57.05 17 52.1 17 47 17 C47 38.45 47 59.9 47 82 C46.67 82 46.34 82 46 82 C46 60.55 46 39.1 46 17 C30.82 17 15.64 17 0 17 C0 11.39 0 5.78 0 0 Z M1 1 C1 5.95 1 10.9 1 16 C15.85 16 30.7 16 46 16 C46 11.05 46 6.1 46 1 C31.15 1 16.3 1 1 1 Z M63 1 C63 5.95 63 10.9 63 16 C77.85 16 92.7 16 108 16 C108 11.05 108 6.1 108 1 C93.15 1 78.3 1 63 1 Z " fill="#6C6C6C" transform="translate(68,206)"/>
<path d="M0 0 C5.28 0 10.56 0 16 0 C16 4.95 16 9.9 16 15 C10.72 15 5.44 15 0 15 C0 10.05 0 5.1 0 0 Z " fill="#000000" transform="translate(296,256)"/>
<path d="M0 0 C2.6688097 2.6688097 2.23825672 4.66996163 2.25224304 8.29814148 C2.24505753 9.16268448 2.23787201 10.02722748 2.23046875 10.91796875 C2.23001053 11.80857498 2.22955231 12.69918121 2.2290802 13.61677551 C2.22605488 15.5056796 2.21816027 17.39458113 2.20581055 19.28344727 C2.18768312 22.15845714 2.18530003 25.03314235 2.18554688 27.90820312 C2.18062642 29.74479442 2.17479582 31.58138355 2.16796875 33.41796875 C2.16685593 34.27239059 2.1657431 35.12681244 2.16459656 36.00712585 C2.12724507 40.77199113 1.7930219 45.30001037 1 50 C0.67 50 0.34 50 0 50 C-5.0175736 14.19640964 -5.0175736 14.19640964 -1 1 C-0.67 0.67 -0.34 0.34 0 0 Z " fill="#1E0AAF" transform="translate(439,227)"/>
<path d="M0 0 C0.33 0 0.66 0 1 0 C1 6.6 1 13.2 1 20 C6.28 20 11.56 20 17 20 C17 20.33 17 20.66 17 21 C11.72 21 6.44 21 1 21 C0.505 22.485 0.505 22.485 0 24 C0 23.01 0 22.02 0 21 C-25.41 21 -50.82 21 -77 21 C-77 31.56 -77 42.12 -77 53 C-77.33 53 -77.66 53 -78 53 C-78 42.11 -78 31.22 -78 20 C-52.26 20 -26.52 20 0 20 C0 13.4 0 6.8 0 0 Z " fill="#929292" transform="translate(411,235)"/>
<path d="M0 0 C0.99 0 1.98 0 3 0 C3 4.95 3 9.9 3 15 C2.01 15 1.02 15 0 15 C0 10.05 0 5.1 0 0 Z " fill="#1800AD" transform="translate(202,248)"/>
</svg>
